<?xml version="1.0" encoding="iso-8859-1"?>
<!-- Generator: Adobe Illustrator 18.0.0, SVG Export Plug-In . SVG Version: 6.00 Build 0)  -->
<!DOCTYPE svg PUBLIC "-//W3C//DTD SVG 1.1//EN" "http://www.w3.org/Graphics/SVG/1.1/DTD/svg11.dtd">
<svg version="1.1" id="Capa_1" xmlns="http://www.w3.org/2000/svg" xmlns:xlink="http://www.w3.org/1999/xlink" x="0px" y="0px"
	 viewBox="0 0 442 442" style="enable-background:new 0 0 442 442;" xml:space="preserve">
<path d="M427,96H315.13V53.499C315.13,33.925,299.206,18,279.631,18H162.369c-19.574,0-35.499,15.924-35.499,35.499V96H15
	c-8.284,0-15,6.716-15,15v298c0,8.284,6.716,15,15,15h412c8.284,0,15-6.716,15-15V111C442,102.716,435.285,96,427,96z M162.369,48
	h117.263c3.032,0,5.499,2.467,5.499,5.499V59H156.87v-5.501C156.87,50.467,159.337,48,162.369,48z M156.87,79h128.26v17H156.87V79z
	 M412,126v218.126c-24.695,5.709-44.165,25.179-49.874,49.874H79.874C74.165,369.305,54.695,349.835,30,344.126V126H412z
	 M30,364.893c13.644,4.653,24.454,15.463,29.107,29.107H30V364.893z M382.893,394c4.653-13.644,15.463-24.454,29.107-29.107V394
	H382.893z"/>
<g>
</g>
<g>
</g>
<g>
</g>
<g>
</g>
<g>
</g>
<g>
</g>
<g>
</g>
<g>
</g>
<g>
</g>
<g>
</g>
<g>
</g>
<g>
</g>
<g>
</g>
<g>
</g>
<g>
</g>
</svg>
